# xmcd CD database file
#
# Track frame offsets:
#	150
#	19247
#	36611
#	54414
#	73568
#	92156
#	111463
#	130845
#	150025
#	167461
#	184893
#	202650
#	221885
#	240689
#	260468
#	279806
#	298944
#	318071
#
# Disc length: 4494 seconds
#
# Revision: 0
# Processed by: cddbd v1.5.2PL0 Copyright (c) Steve Scherf et al.
# Submitted via: CDex 1.51
#
DISCID=00118c12
DTITLE=Jenny Phillips - Light Keepers - Be Thou An Example
DYEAR=2008
DGENRE=LDS Music
TTITLE0=Lighthouse In The Night
TTITLE1=Fight For His Kingdom
TTITLE2=Firm In The Faith
TTITLE3=Light Keeper
TTITLE4=He Is The Way
TTITLE5=Hold Our Torches High
TTITLE6=Hold Our Torches High (With YM Chorus)
TTITLE7=Lighthouse In The Night - Inst
TTITLE8=Fit For His Kingdom - Inst
TTITLE9=Fight For His Kingdom - Inst with Male Backup
TTITLE10=Firm In The Faith - Inst
TTITLE11=Light Keeper - Inst
TTITLE12=He Is The Way - Inst
TTITLE13=Recorded Narration
TTITLE14=Hold Our Torches High - Inst
TTITLE15=Light Keeper - Dutch
TTITLE16=Light Keeper - Italian
TTITLE17=Light Keeper - German
EXTD=YEAR: 2008
EXTT0=
EXTT1=
EXTT2=
EXTT3=
EXTT4=
EXTT5=
EXTT6=
EXTT7=
EXTT8=
EXTT9=
EXTT10=
EXTT11=
EXTT12=
EXTT13=
EXTT14=
EXTT15=
EXTT16=
EXTT17=
PLAYORDER=
